# xmcd CD database file
#
# Track frame offsets:
#	150
#	17411
#	35876
#	54966
#	72694
#	90776
#	109321
#	128554
#	150234
#	172396
#
# Disc length: 2540 seconds
#
# Revision: 12
# Processed by: cddbd v1.5.2PL0 Copyright (c) Steve Scherf et al.
# Submitted via: CDex 1.51
#
DISCID=7c09ea0a
DTITLE=S.H.E - 奇幻旅程
DYEAR=2004
DGENRE=Pop
TTITLE0=波斯貓
TTITLE1=十面埋伏
TTITLE2=他還是不懂
TTITLE3=Only Lonely
TTITLE4=找不到
TTITLE5=五天四夜
TTITLE6=安全感
TTITLE7=Never Mind
TTITLE8=茱羅記
TTITLE9=一起開始的旅程
EXTD=Qi Huan Lu Cheng - SHE's Sixth Album. Posted and Verified by Stanley Lai. YEAR: 2004
EXTT0=
EXTT1=
EXTT2=
EXTT3=
EXTT4=
EXTT5=
EXTT6=
EXTT7=
EXTT8=
EXTT9=
PLAYORDER=
